# xmcd
#
# Track frame offsets:
#	150
#	15511
#	32311
#	44132
#	55465
#	67664
#	79142
#	93139
#	108988
#	128274
#	130402
#
# Disc length: 1970 seconds
#
# Revision: 0
# Processed by: cddbd v1.5.2PL0 Copyright (c) Steve Scherf et al.
# Submitted via: EZCDAudioConverter 3.1.7.1
#
DISCID=8007b00b
DTITLE=Timothy P. and Rural Route 3 - Utah Moon
DYEAR=1999
DGENRE=Country
TTITLE0=The Dalhart Cowboy
TTITLE1=Catfish John
TTITLE2=Rocky Mountain Two-Step
TTITLE3=Too Wet to Plow
TTITLE4=Utah Moon
TTITLE5=Nashville Garbage Man
TTITLE6=Rich Man's Lament
TTITLE7=Cigarettes, Whiskey, and Wild, Wild Women
TTITLE8=Old Time Fandango
TTITLE9=Little Darlin' Pal of Mine
TTITLE10=Country Lullaby
EXTD=
EXTT0=
EXTT1=
EXTT2=
EXTT3=
EXTT4=
EXTT5=
EXTT6=
EXTT7=
EXTT8=
EXTT9=
EXTT10=
PLAYORDER=
